<svg width="340" height="59" viewBox="0 0 340 59" fill="none" xmlns="http://www.w3.org/2000/svg">
<path d="M74.3802 58.4C59.5802 58.4 46.6202 45.12 46.6202 29.44C46.6202 11.76 58.4602 0.079999 73.4202 0.079999C86.9402 0.079999 95.5002 8.96 95.5002 14.8C95.5002 16.88 94.2202 18.24 92.1402 18.24C86.1402 18.24 85.9802 3.36 71.4202 3.36C61.6602 3.36 53.8202 12.72 53.8202 25.12C53.8202 41.36 64.5402 53.52 76.2202 53.52C81.4202 53.52 85.9002 52.08 88.7002 50.08V36.24C88.7002 33.04 83.3402 33.2 83.3402 31.84V31.52C83.3402 30.8 83.9802 30.4 85.0202 30.4L98.6202 30.48C99.5802 30.48 100.22 30.88 100.22 31.52V31.84C100.22 33.2 95.5002 33.04 95.5002 36.24V48.64C95.5002 50.32 95.0202 51.2 93.5002 52.48C89.2602 55.92 82.6202 58.4 74.3802 58.4Z" fill="#0F0F0F"/>
<path d="M131.216 58.4C114.336 58.4 102.736 44.48 102.736 29.04C102.736 12.48 114.176 0 130.656 0C147.056 0 158.416 13.52 158.416 29.52C158.416 45.28 146.656 58.4 131.216 58.4ZM109.936 24.16C109.936 40.64 119.296 54.96 132.976 54.96C143.696 54.96 151.216 45.12 151.216 34.32C151.216 17.36 141.776 3.44 128.176 3.44C117.376 3.44 109.936 12.4 109.936 24.16Z" fill="#0F0F0F"/>
<path d="M190.925 58.4C174.045 58.4 162.445 44.48 162.445 29.04C162.445 12.48 173.885 0 190.365 0C206.765 0 218.125 13.52 218.125 29.52C218.125 45.28 206.365 58.4 190.925 58.4ZM169.645 24.16C169.645 40.64 179.005 54.96 192.685 54.96C203.405 54.96 210.925 45.12 210.925 34.32C210.925 17.36 201.485 3.44 187.885 3.44C177.085 3.44 169.645 12.4 169.645 24.16Z" fill="#0F0F0F"/>
<path d="M225.115 57.6C224.155 57.6 223.435 57.28 223.435 56.64V56.48C223.435 54.96 226.395 54.8 226.395 52V6.4C226.395 3.52 223.435 3.44 223.435 1.92V1.76C223.435 1.12 224.155 0.799999 225.115 0.799999H242.635C260.315 0.799999 274.955 12 274.955 28.72C274.955 46.8 261.995 57.6 245.515 57.6H225.115ZM233.515 49.92C233.515 52.72 234.955 54.32 237.275 54.32H245.035C257.275 54.32 267.515 46 267.515 31.28C267.515 14.64 254.875 4.08 241.355 4.08H235.755C234.475 4.08 233.515 4.88 233.515 6.64V49.92Z" fill="#0F0F0F"/>
<path d="M2.83404 37.4231L4.01582e-05 28.3491H1.44304L3.35404 34.3031L3.84804 36.2661L4.32904 34.3161L6.25304 28.3491H7.65704L4.82304 37.4231H2.83404Z" fill="#0F0F0F"/>
<path d="M9.26112 37.4231V28.3491H15.7741V29.5191H10.6391V32.1321H14.1751V33.3021H10.6391V36.2531H15.8261V37.4231H9.26112Z" fill="#0F0F0F"/>
<path d="M18.8602 33.6271V32.4571H21.1612C21.5425 32.4571 21.8762 32.3964 22.1622 32.2751C22.4569 32.1451 22.6865 31.9631 22.8512 31.7291C23.0245 31.4951 23.1112 31.2264 23.1112 30.9231C23.1112 30.6284 23.0375 30.3771 22.8902 30.1691C22.7429 29.9611 22.5435 29.8007 22.2922 29.6881C22.0409 29.5754 21.7592 29.5191 21.4472 29.5191H18.8602V28.3491H21.4472C22.0452 28.3491 22.5782 28.4531 23.0462 28.6611C23.5142 28.8604 23.8825 29.1507 24.1512 29.5321C24.4199 29.9134 24.5542 30.3771 24.5542 30.9231C24.5542 31.2697 24.4719 31.6034 24.3072 31.9241C24.1512 32.2447 23.9215 32.5351 23.6182 32.7951C23.3235 33.0464 22.9639 33.2501 22.5392 33.4061C22.1145 33.5534 21.6335 33.6271 21.0962 33.6271H18.8602ZM17.8722 37.4231V28.3491H19.2502V37.4231H17.8722ZM23.0852 37.4231C23.0332 37.0157 22.9205 36.6127 22.7472 36.2141C22.5825 35.8154 22.3572 35.4341 22.0712 35.0701C21.7852 34.7061 21.4299 34.3681 21.0052 34.0561C20.5892 33.7441 20.1039 33.4624 19.5492 33.2111L21.0832 32.8731C21.6552 33.1591 22.1449 33.4797 22.5522 33.8351C22.9682 34.1817 23.3105 34.5501 23.5792 34.9401C23.8565 35.3301 24.0645 35.7331 24.2032 36.1491C24.3505 36.5651 24.4459 36.9897 24.4892 37.4231H23.0852Z" fill="#0F0F0F"/>
<path d="M28.8623 37.4231V33.7441L25.8593 28.3491H27.3673L28.7713 30.8451L29.5773 32.5481L30.3963 30.8321L31.8003 28.3491H33.2953L30.2403 33.7441V37.4231H28.8623Z" fill="#0F0F0F"/>
<path d="M289.758 36.6L290.434 27.526H292.241L293.398 32.895L293.671 34.663L293.957 32.895L295.088 27.526H296.869L297.558 36.6H296.193L295.894 30.919L295.842 28.917L295.452 30.919L294.217 36.6H293.047L291.825 30.919L291.461 28.891L291.383 30.919L291.097 36.6H289.758Z" fill="#0F0F0F"/>
<path d="M302.243 36.756C301.472 36.756 300.8 36.5653 300.228 36.184C299.656 35.794 299.21 35.248 298.889 34.546C298.577 33.844 298.421 33.0163 298.421 32.063C298.421 31.101 298.577 30.269 298.889 29.567C299.21 28.865 299.656 28.3233 300.228 27.942C300.8 27.5607 301.472 27.37 302.243 27.37C303.015 27.37 303.686 27.5607 304.258 27.942C304.83 28.3233 305.272 28.865 305.584 29.567C305.905 30.269 306.065 31.101 306.065 32.063C306.065 33.0163 305.905 33.844 305.584 34.546C305.272 35.248 304.83 35.794 304.258 36.184C303.686 36.5653 303.015 36.756 302.243 36.756ZM302.243 35.586C302.72 35.586 303.136 35.443 303.491 35.157C303.847 34.871 304.124 34.4637 304.323 33.935C304.523 33.4063 304.622 32.7823 304.622 32.063C304.622 31.335 304.523 30.711 304.323 30.191C304.124 29.6623 303.847 29.255 303.491 28.969C303.136 28.683 302.72 28.54 302.243 28.54C301.775 28.54 301.359 28.683 300.995 28.969C300.64 29.255 300.363 29.6623 300.163 30.191C299.964 30.7197 299.864 31.3437 299.864 32.063C299.864 32.7823 299.964 33.4063 300.163 33.935C300.363 34.4637 300.64 34.871 300.995 35.157C301.359 35.443 301.775 35.586 302.243 35.586Z" fill="#0F0F0F"/>
<path d="M309.827 36.6L306.993 27.526H308.436L310.347 33.48L310.841 35.443L311.322 33.493L313.246 27.526H314.65L311.816 36.6H309.827Z" fill="#0F0F0F"/>
<path d="M318.711 36.6V27.526H320.089V36.6H318.711ZM316.436 27.526H322.352V28.696H316.436V27.526ZM316.436 35.43H322.352V36.6H316.436V35.43Z" fill="#0F0F0F"/>
<path d="M324.84 36.6V27.526H331.353V28.696H326.218V31.309H329.754V32.479H326.218V35.43H331.405V36.6H324.84Z" fill="#0F0F0F"/>
<path d="M336.701 36.756C335.999 36.756 335.388 36.6217 334.868 36.353C334.348 36.0843 333.945 35.6987 333.659 35.196C333.373 34.6933 333.23 34.0823 333.23 33.363H334.595C334.595 34.0737 334.781 34.624 335.154 35.014C335.526 35.3953 336.038 35.586 336.688 35.586C337.242 35.586 337.689 35.4603 338.027 35.209C338.365 34.949 338.534 34.5893 338.534 34.13C338.534 33.818 338.438 33.5667 338.248 33.376C338.066 33.1853 337.819 33.0293 337.507 32.908C337.203 32.7867 336.87 32.6783 336.506 32.583C336.142 32.4877 335.773 32.3837 335.401 32.271C335.037 32.1497 334.699 31.998 334.387 31.816C334.083 31.634 333.836 31.3913 333.646 31.088C333.464 30.7847 333.373 30.399 333.373 29.931C333.373 29.437 333.503 28.9993 333.763 28.618C334.031 28.228 334.4 27.9247 334.868 27.708C335.344 27.4827 335.903 27.37 336.545 27.37C337.169 27.37 337.728 27.487 338.222 27.721C338.716 27.9463 339.11 28.2713 339.405 28.696C339.708 29.112 339.864 29.6147 339.873 30.204H338.495C338.486 29.8573 338.391 29.5627 338.209 29.32C338.035 29.0687 337.801 28.878 337.507 28.748C337.221 28.6093 336.9 28.54 336.545 28.54C336.033 28.54 335.617 28.6613 335.297 28.904C334.976 29.1467 334.816 29.476 334.816 29.892C334.816 30.1867 334.907 30.4207 335.089 30.594C335.279 30.7673 335.526 30.9103 335.83 31.023C336.142 31.127 336.48 31.2267 336.844 31.322C337.216 31.4087 337.585 31.5127 337.949 31.634C338.313 31.7467 338.646 31.9027 338.95 32.102C339.262 32.2927 339.509 32.5527 339.691 32.882C339.881 33.2027 339.977 33.6143 339.977 34.117C339.977 34.6543 339.834 35.1223 339.548 35.521C339.262 35.911 338.872 36.2143 338.378 36.431C337.884 36.6477 337.325 36.756 336.701 36.756Z" fill="#0F0F0F"/>
<path d="M198.769 50.5479C199.091 49.812 199.638 47.6719 199.615 42.5508C199.61 41.3096 199.383 40.8467 199.176 40.3545C198.928 39.7635 198.456 39.3757 197.923 39.2229C197.25 39.0303 196.505 39.3692 195.769 39.7186C193.435 40.8255 192.664 43.5678 192.367 45.1407C191.989 47.1488 193.238 49.3496 194.049 50.3346C194.378 50.7339 194.94 50.8364 195.531 50.903C196.955 51.0632 199.102 49.0313 200.56 47.5103C201.551 46.4779 201.766 45.0212 201.978 42.0176C202.047 41.0307 201.75 40.4686 201.497 40.0057C201.218 39.495 200.695 39.2495 200.171 39.1617C199.562 39.0596 198.843 39.2649 198.08 39.5902C196.103 40.4336 195.163 42.6149 194.85 43.801C194.768 44.11 194.864 44.4714 195.012 44.7738C195.313 45.3886 196.005 45.6336 196.652 45.7248C197.354 45.8236 197.987 45.6266 198.442 45.3696C198.887 45.1183 199.069 44.5004 199.175 43.9108C199.224 43.6363 199.127 43.3958 198.746 43.2602C198.366 43.1245 197.669 43.097 197.02 43.1473C196.371 43.1976 195.791 43.3265 195.193 43.4593" pathLength="1" stroke="#0F0F0F" stroke-width="4" stroke-linecap="round" stroke-dasharray="1 1"/>
<path d="M134.769 47.3673C135.831 47.1821 137.631 46.6113 138.596 45.9352C139.928 45.0029 140.22 43.6605 140.384 41.9901C140.458 41.2373 140.102 40.6493 139.77 40.2251C139.093 39.3624 133.978 39.5677 130.744 39.7332C129.474 39.7983 128.889 42.1149 128.578 43.7733C128.079 46.4403 128.848 47.7086 129.703 49.2393C130.409 50.5029 132 50.6163 133.294 50.6473C134.959 50.6871 136.344 48.8607 137.251 47.5646C138.195 46.2167 137.939 43.4847 137.334 39.7439C137.037 37.9034 135.803 36.8514 135.364 36.6754C134.082 36.1622 132.943 38.3967 132.225 39.5035C131.519 40.594 131.64 42.1607 131.883 43.3198C132.114 44.4214 133.186 45.4153 134.16 46.2237C134.584 46.576 135.165 46.5875 135.644 46.571C136.1 46.4647 136.538 46.2537 136.933 45.9454C137.117 45.7702 137.267 45.557 137.415 44.8733" pathLength="1" stroke="#0F0F0F" stroke-width="4" stroke-linecap="round" stroke-dasharray="1 1"/>
</svg>
