<svg width="90" height="83" viewBox="0 0 90 83" fill="none" xmlns="http://www.w3.org/2000/svg">
<path d="M68.334 25.0704C75.2676 25.0704 80.8884 19.4582 80.8884 12.5352C80.8884 5.61219 75.2676 0 68.334 0C61.4004 0 55.7796 5.61219 55.7796 12.5352C55.7796 19.4582 61.4004 25.0704 68.334 25.0704Z" fill="#40BCF4"/>
<path d="M47.0296 25.0704C53.9632 25.0704 59.584 19.4582 59.584 12.5352C59.584 5.61219 53.9632 0 47.0296 0C40.096 0 34.4752 5.61219 34.4752 12.5352C34.4752 19.4582 40.096 25.0704 47.0296 25.0704Z" fill="#00E054"/>
<path d="M25.7252 25.0704C32.6588 25.0704 38.2796 19.4582 38.2796 12.5352C38.2796 5.61219 32.6588 0 25.7252 0C18.7916 0 13.1708 5.61219 13.1708 12.5352C13.1708 19.4582 18.7916 25.0704 25.7252 25.0704Z" fill="#FF8000"/>
<path fill-rule="evenodd" clip-rule="evenodd" d="M36.3774 19.1723C35.1719 17.2476 34.4752 14.9726 34.4752 12.5352C34.4752 10.0978 35.1719 7.82291 36.3774 5.89819C37.5829 7.82291 38.2796 10.0978 38.2796 12.5352C38.2796 14.9726 37.5829 17.2476 36.3774 19.1723Z" fill="#0F0F0F"/>
<path fill-rule="evenodd" clip-rule="evenodd" d="M57.6818 5.89819C58.8872 7.82291 59.584 10.0978 59.584 12.5352C59.584 14.9726 58.8872 17.2476 57.6818 19.1723C56.4763 17.2476 55.7796 14.9726 55.7796 12.5352C55.7796 10.0978 56.4763 7.82291 57.6818 5.89819Z" fill="#0F0F0F"/>
<path fill-rule="evenodd" clip-rule="evenodd" d="M84.4607 53.1243L79.4222 53.7543L79.5422 37.7858L83.4971 37.291L84.15 40.4826C84.6829 37.9403 86.2892 36.7219 89.1061 36.3693L90 36.2581L89.9598 41.5165L88.1181 41.7467C85.2473 42.1059 84.5349 43.2125 84.5136 46.0485L84.4607 53.1243ZM77.5581 48.9265C76.6662 52.3936 74.2124 54.8186 69.6346 55.3906C64.1898 56.072 61.6668 53.3066 61.7039 48.3783L61.7075 47.9104C61.7461 42.7891 64.9388 39.2819 69.8415 38.6687C75.3946 37.9742 77.7234 41.3411 77.6913 45.6637L77.6771 47.4536L66.5985 48.8391C66.8278 50.7357 67.9037 51.6467 69.7998 51.4094C71.1813 51.2362 71.9446 50.5361 72.3305 49.5799L77.5581 48.9265ZM69.8669 42.4614C68.0253 42.6915 66.9615 43.7874 66.6224 45.7003L72.8252 44.9245C72.6224 43.162 71.7091 42.2307 69.8669 42.4614ZM37.5148 54.0198C36.6224 57.4869 34.1685 59.9119 29.5908 60.4845C24.1465 61.1653 21.6235 58.3999 21.6601 53.4716L21.6637 53.0037C21.7023 47.8829 24.8955 44.3752 29.7977 43.762C35.3507 43.0675 37.6796 46.4349 37.6475 50.7575L37.6338 52.547L26.5552 53.9324C26.784 55.8291 27.8604 56.74 29.756 56.5028C31.1375 56.33 31.9008 55.6294 32.2867 54.6737L37.5148 54.0198ZM29.8236 47.5547C27.9814 47.7854 26.9177 48.8807 26.5786 50.7936L32.7814 50.0178C32.5786 48.2553 31.6653 47.3245 29.8236 47.5547ZM49.169 41.6698L49.1695 41.6535C49.7654 41.5793 50.1722 41.4731 50.7147 41.2953C51.7179 41.0327 52.1003 40.5444 52.2727 39.1752C52.3591 38.504 52.4039 37.9421 52.4359 37.2775L56.4991 36.7695L56.4686 40.7619L60.2069 40.2944L60.1739 44.7273L56.4356 45.1942L56.4066 49.0215C56.3857 51.7747 56.79 52.0267 59.1193 51.7356L60.122 51.6101L60.0869 56.2629L57.5949 56.5744C52.8544 57.1673 51.7027 55.5786 51.7403 50.595L51.7764 45.777L49.1222 46.1092V46.1042L45.4246 46.5665L45.3961 50.3933C45.3752 53.1465 45.779 53.3985 48.1088 53.1073L49.111 52.9824L49.0759 57.6352L46.5839 57.9467C41.8439 58.5396 40.6917 56.9509 40.7293 51.9672L40.7659 47.1493L38.1112 47.481L38.1422 43.3235C38.7381 43.2493 39.1449 43.1432 39.688 42.9653C40.6907 42.7027 41.0736 42.2144 41.2459 40.8452C41.3324 40.1745 41.3929 39.3139 41.4254 38.6498L45.4881 38.1418L45.4581 42.1341L49.169 41.6698ZM20.4593 61.2137L7.21361 62.87L7.36208 43.1296L12.4544 42.4925L12.3431 57.3051L20.4965 56.2855L20.4593 61.2137ZM28.4487 82.2694C26.0167 82.5554 24.4582 81.582 23.7107 79.8815L23.2872 82.4823L18.8934 83L19.1873 62.7134L24.1612 62.1276L24.0529 69.584C24.9351 67.7443 26.5526 66.528 28.7909 66.2643C32.3827 65.8675 35.0019 67.9003 34.9266 73.0638L34.92 73.5383C34.8448 78.7282 32.4 81.804 28.4487 82.2694ZM26.879 78.2725C28.7304 78.0545 29.8795 76.7879 29.9187 74.1007L29.9238 73.7319C29.9594 71.3079 28.7609 70.2394 27.0199 70.4442C25.1965 70.6591 23.9329 72.1492 23.9009 74.3883L23.8958 74.7312C23.8572 77.392 25.0551 78.4869 26.879 78.2725ZM44.4549 80.385C39.2593 80.9967 36.4231 78.7531 36.4968 73.6679L36.5039 73.1938C36.5787 68.0039 39.9885 64.9459 44.7137 64.3896C49.5219 63.8231 52.743 66.1795 52.6693 71.2906L52.6622 71.7646C52.5885 76.8494 49.3459 79.8088 44.4549 80.385ZM44.5419 76.2453C46.3937 76.0273 47.6268 74.6987 47.6613 72.3007L47.6674 71.8795C47.7035 69.3767 46.6169 68.2158 44.6827 68.4434C42.8034 68.6649 41.5424 70.0494 41.5053 72.605L41.4992 73.0267C41.4651 75.3714 42.691 76.4632 44.5419 76.2453ZM63.4784 77.7502L60.6117 73.7745L57.6198 78.4401L51.7063 79.1362L57.7357 70.4838L52.4807 63.7905L58.173 63.1204L60.7423 66.684L63.4235 62.5021L69.0884 61.835L63.6498 69.7344L69.2257 77.0734L63.4784 77.7502ZM79.926 75.8134L79.4953 73.2081C78.6681 75.0935 77.0481 76.4419 74.5891 76.7315C70.7206 77.1867 68.3272 74.812 68.403 69.5693L68.4096 69.1217C68.4838 63.9841 71.1711 61.3005 74.8464 60.8676C77.1676 60.5943 78.6742 61.3376 79.4531 62.7978L79.5574 55.6056L84.5033 55.0229L84.2094 75.3094L79.926 75.8134ZM76.3062 72.4526C78.1575 72.2346 79.3916 70.8268 79.4292 68.2448L79.4338 67.9023C79.4679 65.584 78.2984 64.4063 76.5025 64.6182C74.6237 64.8392 73.5004 66.2074 73.4654 68.605L73.4603 68.9474C73.4206 71.6874 74.5926 72.6543 76.3062 72.4526ZM17.7233 75.0362L0 77.3016L0.0788134 73.9743L17.7483 71.715L17.7233 75.0362Z" fill="#0F0F0F"/>
</svg>
